<svg width="15" height="17" viewBox="0 0 15 17" fill="none" xmlns="http://www.w3.org/2000/svg">
<path d="M13.1316 3.635C13.0146 3.576 12.9016 3.511 12.7906 3.44C12.4706 3.232 12.1766 2.987 11.9156 2.71C11.2636 1.977 11.0196 1.233 10.9296 0.712H10.9336C10.8586 0.279 10.8896 0 10.8946 0H7.92164V11.289C7.92164 11.441 7.92164 11.591 7.91564 11.739C7.91564 11.757 7.91364 11.774 7.91264 11.794C7.91264 11.802 7.91264 11.81 7.91064 11.819V11.825C7.84664 12.648 7.37064 13.385 6.64064 13.793C6.26564 14.002 5.84264 14.112 5.41064 14.112C4.02664 14.112 2.90364 13.002 2.90364 11.633C2.90364 10.263 4.02664 9.154 5.41064 9.154C5.67364 9.153 5.93364 9.194 6.18264 9.274L6.18664 6.301C4.65664 6.107 3.11464 6.55 1.93264 7.523C1.41964 7.961 0.989642 8.482 0.659642 9.065C0.533642 9.278 0.0606417 10.131 0.00364172 11.517C-0.0323583 12.304 0.207642 13.119 0.322642 13.455V13.463C0.394642 13.661 0.673642 14.338 1.12964 14.908C1.49664 15.366 1.93064 15.768 2.41664 16.101V16.094L2.42364 16.101C3.86264 17.062 5.45864 16.999 5.45864 16.999C5.73464 16.988 6.65964 16.999 7.71064 16.51C8.87564 15.967 9.53864 15.16 9.53864 15.16C9.96264 14.677 10.2996 14.127 10.5356 13.533C10.8046 12.839 10.8946 12.006 10.8946 11.673V5.683C10.9306 5.705 11.4106 6.017 11.4106 6.017C11.4106 6.017 12.1026 6.452 13.1816 6.736C13.9566 6.938 14.9996 6.98 14.9996 6.98V4.082C14.6336 4.121 13.8916 4.007 13.1316 3.635Z" fill="#808080"/>
</svg>
