<svg width="21" height="17" viewBox="0 0 21 17" fill="none" xmlns="http://www.w3.org/2000/svg">
<path d="M20.4684 2.7675C20.3801 2.42189 20.2109 2.10224 19.9747 1.83491C19.7385 1.56758 19.4421 1.36024 19.11 1.23C15.8962 -0.0112465 10.7812 3.56619e-06 10.5 3.56619e-06C10.2188 3.56619e-06 5.10375 -0.0112465 1.89 1.23C1.5579 1.36024 1.26153 1.56758 1.02534 1.83491C0.789145 2.10224 0.619899 2.42189 0.531563 2.7675C0.28875 3.70313 0 5.41313 0 8.25C0 11.0869 0.28875 12.7969 0.531563 13.7325C0.619767 14.0783 0.788954 14.3981 1.02515 14.6656C1.26136 14.9331 1.5578 15.1406 1.89 15.2709C4.96875 16.4588 9.7875 16.5 10.4381 16.5H10.5619C11.2125 16.5 16.0341 16.4588 19.11 15.2709C19.4422 15.1406 19.7386 14.9331 19.9748 14.6656C20.211 14.3981 20.3802 14.0783 20.4684 13.7325C20.7113 12.795 21 11.0869 21 8.25C21 5.41313 20.7113 3.70313 20.4684 2.7675ZM13.7081 8.56219L9.20813 11.5622C9.15164 11.5999 9.08597 11.6215 9.01815 11.6248C8.95032 11.6281 8.88287 11.6129 8.82301 11.5809C8.76314 11.5488 8.7131 11.5011 8.67822 11.4428C8.64335 11.3846 8.62496 11.3179 8.625 11.25V5.25C8.62496 5.1821 8.64335 5.11545 8.67822 5.05718C8.7131 4.99892 8.76314 4.95121 8.82301 4.91916C8.88287 4.88711 8.95032 4.87191 9.01815 4.8752C9.08597 4.87849 9.15164 4.90013 9.20813 4.93782L13.7081 7.93782C13.7596 7.97205 13.8017 8.01846 13.8309 8.07292C13.8601 8.12739 13.8754 8.18822 13.8754 8.25C13.8754 8.31179 13.8601 8.37262 13.8309 8.42708C13.8017 8.48155 13.7596 8.52796 13.7081 8.56219Z" fill="#808080"/>
</svg>
