<svg aria-hidden="true" style="position: absolute; width: 0; height: 0; overflow: hidden;" version="1.1" xmlns="http://www.w3.org/2000/svg" xmlns:xlink="http://www.w3.org/1999/xlink">
<defs>
<symbol id="icon-header__burger" viewBox="0 0 43 32">
<path d="M41.667 15.833c0 0.663-0.263 1.299-0.732 1.768s-1.105 0.732-1.768 0.732h-36.667c-0.663 0-1.299-0.263-1.768-0.732s-0.732-1.105-0.732-1.768c0-0.663 0.263-1.299 0.732-1.768s1.105-0.732 1.768-0.732h36.667c0.663 0 1.299 0.263 1.768 0.732s0.732 1.105 0.732 1.768zM2.5 5h36.667c0.663 0 1.299-0.263 1.768-0.732s0.732-1.105 0.732-1.768c0-0.663-0.263-1.299-0.732-1.768s-1.105-0.732-1.768-0.732h-36.667c-0.663 0-1.299 0.263-1.768 0.732s-0.732 1.105-0.732 1.768c0 0.663 0.263 1.299 0.732 1.768s1.105 0.732 1.768 0.732zM39.167 26.667h-36.667c-0.663 0-1.299 0.263-1.768 0.732s-0.732 1.105-0.732 1.768c0 0.663 0.263 1.299 0.732 1.768s1.105 0.732 1.768 0.732h36.667c0.663 0 1.299-0.263 1.768-0.732s0.732-1.105 0.732-1.768c0-0.663-0.263-1.299-0.732-1.768s-1.105-0.732-1.768-0.732z"></path>
</symbol>
<symbol id="icon-X" viewBox="0 0 37 32">
<path fill="#808080" style="fill: var(--color1, #808080)" d="M28.8 0h5.609l-12.251 13.554 14.414 18.446h-11.287l-8.839-11.186-10.114 11.186h-5.611l13.106-14.498-13.826-17.502h11.57l7.991 10.226 9.239-10.226z"></path>
</symbol>
<symbol id="icon-arrow" viewBox="0 0 32 32">
<path  d="M25.649 16.849l-7.2 7.2c-0.225 0.225-0.531 0.352-0.85 0.352s-0.625-0.127-0.85-0.352c-0.225-0.225-0.352-0.531-0.352-0.85s0.127-0.625 0.352-0.85l5.151-5.149h-14.7c-0.318 0-0.623-0.126-0.849-0.351s-0.351-0.53-0.351-0.849c0-0.318 0.126-0.623 0.351-0.849s0.53-0.351 0.849-0.351h14.7l-5.149-5.152c-0.225-0.225-0.352-0.531-0.352-0.85s0.127-0.625 0.352-0.85c0.225-0.225 0.531-0.352 0.85-0.352s0.625 0.127 0.85 0.352l7.2 7.2c0.112 0.112 0.201 0.244 0.261 0.39s0.091 0.303 0.091 0.461-0.032 0.315-0.092 0.46c-0.061 0.146-0.15 0.278-0.262 0.39z"></path>
</symbol>
<symbol id="icon-youtube" viewBox="0 0 40 32">
<path fill="#808080" style="fill: var(--color1, #808080)" d="M38.529 5.209c-0.166-0.651-0.485-1.252-0.929-1.755s-1.003-0.893-1.628-1.139c-6.050-2.336-15.678-2.315-16.207-2.315s-10.158-0.021-16.207 2.315c-0.625 0.245-1.183 0.635-1.628 1.139s-0.763 1.105-0.929 1.755c-0.457 1.761-1.001 4.98-1.001 10.32s0.544 8.559 1.001 10.32c0.166 0.651 0.484 1.253 0.929 1.756s1.003 0.894 1.628 1.139c5.795 2.236 14.866 2.314 16.091 2.314h0.233c1.225 0 10.301-0.078 16.091-2.314 0.625-0.245 1.183-0.636 1.628-1.139s0.763-1.105 0.929-1.756c0.457-1.765 1.001-4.98 1.001-10.32s-0.543-8.559-1.001-10.32zM25.803 16.117l-8.471 5.647c-0.106 0.071-0.23 0.112-0.358 0.118s-0.255-0.022-0.367-0.083c-0.113-0.060-0.207-0.15-0.273-0.26s-0.1-0.235-0.1-0.363v-11.294c-0-0.128 0.035-0.253 0.1-0.363s0.16-0.199 0.273-0.26c0.113-0.060 0.24-0.089 0.367-0.083s0.251 0.047 0.358 0.118l8.471 5.647c0.097 0.064 0.176 0.152 0.231 0.254s0.084 0.217 0.084 0.333c0 0.116-0.029 0.231-0.084 0.333s-0.134 0.19-0.231 0.254z"></path>
</symbol>
<symbol id="icon-tik" viewBox="0 0 28 32">
<path fill="#808080" style="fill: var(--color1, #808080)" d="M24.718 6.842c-0.22-0.111-0.433-0.233-0.642-0.367-0.602-0.392-1.156-0.853-1.647-1.374-1.227-1.38-1.687-2.78-1.856-3.761h0.008c-0.141-0.815-0.083-1.34-0.073-1.34h-5.596v21.25c0 0.286 0 0.568-0.011 0.847 0 0.034-0.004 0.066-0.006 0.104 0 0.015 0 0.030-0.004 0.047v0.011c-0.12 1.549-1.016 2.936-2.391 3.704-0.706 0.393-1.502 0.6-2.315 0.6-2.605 0-4.719-2.089-4.719-4.666 0-2.579 2.114-4.666 4.719-4.666 0.495-0.002 0.984 0.075 1.453 0.226l0.008-5.596c-2.88-0.365-5.783 0.469-8.008 2.3-0.966 0.824-1.775 1.805-2.396 2.903-0.237 0.401-1.128 2.007-1.235 4.616-0.068 1.481 0.384 3.016 0.6 3.648v0.015c0.136 0.373 0.661 1.647 1.519 2.72 0.691 0.862 1.508 1.619 2.423 2.246v-0.013l0.013 0.013c2.709 1.809 5.713 1.69 5.713 1.69 0.52-0.021 2.261 0 4.239-0.92 2.193-1.022 3.441-2.541 3.441-2.541 0.798-0.909 1.432-1.944 1.877-3.063 0.506-1.306 0.676-2.874 0.676-3.501v-11.275c0.068 0.041 0.971 0.629 0.971 0.629s1.303 0.819 3.334 1.353c1.459 0.38 3.422 0.459 3.422 0.459v-5.455c-0.689 0.073-2.086-0.141-3.516-0.841z"></path>
</symbol>
<symbol id="icon-linkedln" viewBox="0 0 32 32">
<path fill="#808080" style="fill: var(--color1, #808080)" d="M0 6c0-3.314 2.686-6 6-6h20c3.314 0 6 2.686 6 6v20c0 3.314-2.686 6-6 6h-20c-3.314 0-6-2.686-6-6v-20zM9.7 26.786v-14.448h-4.832v14.448h4.832zM7.284 10.364c1.684 0 2.734-1.108 2.734-2.496-0.032-1.418-1.050-2.496-2.702-2.496-1.654 0-2.734 1.078-2.734 2.496 0 1.388 1.048 2.496 2.67 2.496h0.032zM17.208 26.786v-8.068c0-0.432 0.032-0.862 0.158-1.172 0.35-0.862 1.146-1.756 2.48-1.756 1.75 0 2.45 1.324 2.45 3.268v7.728h4.832v-8.284c0-4.438-2.384-6.504-5.564-6.504-2.564 0-3.714 1.4-4.356 2.386v-2.046h-4.834c0.064 1.35 0.002 14.366 0 14.45l4.834-0.002z"></path>
</symbol>
<symbol id="icon-pinterest" viewBox="0 0 32 32">
<path fill="#808080" style="fill: var(--color1, #808080)" d="M16.002 0c-8.838 0-16.002 7.164-16.002 15.998 0 6.554 3.94 12.182 9.578 14.656-0.048-1.118-0.010-2.458 0.276-3.672 0.31-1.3 2.060-8.72 2.060-8.72s-0.51-1.022-0.51-2.532c0-2.372 1.374-4.142 3.084-4.142 1.458 0 2.158 1.094 2.158 2.402 0 1.462-0.932 3.652-1.41 5.678-0.402 1.698 0.85 3.082 2.522 3.082 3.034 0 5.076-3.894 5.076-8.506 0-3.506-2.362-6.132-6.658-6.132-4.854 0-7.876 3.62-7.876 7.662 0 1.394 0.408 2.378 1.054 3.138 0.294 0.35 0.336 0.492 0.228 0.892-0.076 0.294-0.252 1.004-0.326 1.284-0.106 0.406-0.434 0.55-0.8 0.402-2.236-0.914-3.276-3.36-3.276-6.114 0-4.544 3.834-9.994 11.434-9.994 6.11 0 10.132 4.42 10.132 9.164 0 6.278-3.492 10.968-8.636 10.968-1.728 0-3.352-0.936-3.908-1.996 0 0-0.93 3.688-1.126 4.398-0.34 1.232-1.004 2.468-1.61 3.428 1.472 0.436 3 0.656 4.536 0.656 8.836 0 15.998-7.164 15.998-16.002 0-8.834-7.162-15.998-15.998-15.998z"></path>
</symbol>
<symbol id="icon-instagram" viewBox="0 0 32 32">
<path fill="#808080" style="fill: var(--color1, #808080)" d="M22.8 0h-14.4c-2.227 0.002-4.362 0.888-5.937 2.463s-2.461 3.71-2.463 5.937v14.4c0.002 2.227 0.888 4.362 2.463 5.937s3.71 2.46 5.937 2.463h14.4c2.227-0.002 4.362-0.888 5.937-2.463s2.46-3.71 2.463-5.937v-14.4c-0.002-2.227-0.888-4.362-2.463-5.937s-3.71-2.461-5.937-2.463zM15.6 22.8c-1.424 0-2.816-0.422-4-1.213s-2.107-1.916-2.652-3.231c-0.545-1.316-0.688-2.763-0.41-4.16s0.964-2.68 1.97-3.687c1.007-1.007 2.29-1.693 3.687-1.97s2.844-0.135 4.16 0.41c1.316 0.545 2.44 1.468 3.231 2.652s1.213 2.576 1.213 4c-0.002 1.909-0.761 3.739-2.111 5.089s-3.18 2.109-5.089 2.111zM24.6 8.4c-0.356 0-0.704-0.106-1-0.303s-0.527-0.479-0.663-0.808c-0.136-0.329-0.172-0.691-0.102-1.040s0.241-0.67 0.493-0.922c0.252-0.252 0.572-0.423 0.922-0.493s0.711-0.034 1.040 0.102c0.329 0.136 0.61 0.367 0.808 0.663s0.303 0.644 0.303 1c0 0.477-0.19 0.935-0.527 1.273s-0.795 0.527-1.273 0.527zM20.4 15.6c0 0.949-0.281 1.877-0.809 2.667s-1.277 1.405-2.154 1.768c-0.877 0.363-1.842 0.458-2.773 0.273s-1.786-0.642-2.458-1.314c-0.671-0.671-1.128-1.527-1.314-2.458s-0.090-1.896 0.273-2.773 0.979-1.627 1.768-2.154c0.789-0.527 1.717-0.809 2.667-0.809 1.273 0 2.494 0.506 3.394 1.406s1.406 2.121 1.406 3.394z"></path>
</symbol>
<symbol id="icon-corect" viewBox="0 0 43 32">
<path d="M40.904 4.1l-25.6 25.6c-0.223 0.224-0.488 0.401-0.78 0.522s-0.604 0.183-0.92 0.183-0.629-0.062-0.92-0.183c-0.292-0.121-0.557-0.299-0.78-0.522l-11.2-11.2c-0.223-0.223-0.4-0.488-0.521-0.78s-0.183-0.604-0.183-0.92c0-0.316 0.062-0.628 0.183-0.92s0.298-0.557 0.521-0.78c0.223-0.223 0.488-0.4 0.78-0.521s0.604-0.183 0.92-0.183c0.316 0 0.628 0.062 0.92 0.183s0.557 0.298 0.78 0.521l9.502 9.502 23.902-23.898c0.451-0.451 1.062-0.704 1.7-0.704s1.249 0.253 1.7 0.704c0.451 0.451 0.704 1.062 0.704 1.7s-0.253 1.249-0.704 1.7l-0.004-0.004z"></path>
</symbol>

<symbol id="icon-goal" viewBox="0 0 32 32">
<path d="M29.913 10.071c1.229 3.301 1.291 6.923 0.177 10.264s-3.338 6.201-6.303 8.103c-2.964 1.902-6.49 2.733-9.992 2.355s-6.769-1.944-9.258-4.437c-2.796-2.787-4.417-6.539-4.531-10.485s1.29-7.785 3.922-10.728 6.291-4.764 10.225-5.091c3.934-0.326 7.843 0.868 10.924 3.336l2.871-2.873c0.16-0.159 0.349-0.286 0.557-0.372s0.432-0.131 0.657-0.131 0.449 0.044 0.657 0.131c0.208 0.086 0.398 0.213 0.557 0.372s0.286 0.349 0.372 0.557c0.086 0.208 0.131 0.432 0.131 0.657s-0.044 0.449-0.131 0.657c-0.086 0.208-0.213 0.398-0.372 0.557l-13.714 13.714c-0.16 0.16-0.349 0.286-0.557 0.372s-0.432 0.131-0.657 0.131-0.449-0.044-0.657-0.131c-0.208-0.086-0.398-0.213-0.557-0.372s-0.286-0.349-0.372-0.557-0.131-0.432-0.131-0.657c0-0.226 0.044-0.449 0.131-0.657s0.213-0.398 0.372-0.557l3.429-3.429c-0.966-0.462-2.053-0.61-3.107-0.425s-2.025 0.695-2.776 1.459-1.245 1.742-1.413 2.8c-0.168 1.058-0.001 2.141 0.476 3.1s1.243 1.744 2.188 2.247 2.024 0.698 3.086 0.558c1.062-0.14 2.053-0.608 2.837-1.338s1.319-1.687 1.532-2.737c0.090-0.446 0.353-0.838 0.732-1.089s0.842-0.343 1.288-0.253c0.446 0.090 0.837 0.353 1.089 0.732s0.343 0.842 0.253 1.288c-0.365 1.799-1.298 3.433-2.662 4.662s-3.085 1.988-4.912 2.165c-1.827 0.177-3.662-0.237-5.236-1.182s-2.803-2.369-3.507-4.064c-0.704-1.695-0.844-3.572-0.402-5.353s1.446-3.373 2.861-4.542c1.415-1.169 3.169-1.852 5.001-1.95s3.649 0.396 5.18 1.407l2.461-2.453c-2.312-1.727-5.169-2.563-8.047-2.354s-5.585 1.447-7.624 3.489-3.274 4.75-3.479 7.629c-0.205 2.878 0.635 5.734 2.365 8.044s4.234 3.919 7.054 4.532c2.82 0.613 5.766 0.19 8.299-1.192s4.483-3.631 5.493-6.335 1.011-5.68 0.005-8.385c-0.080-0.211-0.118-0.437-0.11-0.663s0.059-0.448 0.153-0.654 0.227-0.391 0.392-0.545c0.166-0.154 0.36-0.274 0.572-0.353s0.438-0.115 0.663-0.106c0.226 0.009 0.448 0.062 0.653 0.157s0.39 0.23 0.543 0.396 0.271 0.362 0.349 0.574v0.001z"></path>
</symbol>
<symbol id="icon-colocol" viewBox="0 0 29 32">
<path d="M28.183 20.847c-1.24-2.133-1.898-5.194-1.898-8.847 0-3.183-1.264-6.235-3.515-8.485s-5.303-3.515-8.485-3.515c-3.183 0-6.235 1.264-8.485 3.515s-3.515 5.303-3.515 8.485c0 3.654-0.656 6.714-1.896 8.847-0.253 0.435-0.387 0.929-0.389 1.432s0.129 0.998 0.379 1.435c0.248 0.437 0.609 0.8 1.044 1.051s0.93 0.381 1.433 0.378h5.169c0.142 1.562 0.863 3.015 2.021 4.073s2.67 1.645 4.239 1.645c1.569 0 3.081-0.587 4.239-1.645s1.879-2.511 2.021-4.073h5.169c0.502 0.003 0.996-0.128 1.43-0.379s0.794-0.613 1.043-1.050c0.251-0.436 0.383-0.931 0.382-1.434s-0.133-0.998-0.385-1.433zM14.285 27.429c-0.659 0-1.297-0.227-1.807-0.644s-0.861-0.997-0.993-1.642h5.6c-0.132 0.645-0.482 1.225-0.993 1.642s-1.149 0.644-1.807 0.644zM3.808 21.714c1.264-2.571 1.906-5.837 1.906-9.714 0-2.273 0.903-4.453 2.511-6.061s3.788-2.51 6.061-2.51c2.273 0 4.454 0.903 6.061 2.51s2.51 3.788 2.51 6.061c0 3.876 0.64 7.143 1.904 9.714h-20.953z"></path>
</symbol>
<symbol id="icon-lock" viewBox="0 0 29 32">
<path d="M25.714 10.286h-4v-2.857c0-1.97-0.783-3.86-2.176-5.253s-3.283-2.176-5.253-2.176c-1.97 0-3.86 0.783-5.253 2.176s-2.176 3.283-2.176 5.253v2.857h-4c-0.758 0-1.484 0.301-2.020 0.837s-0.837 1.263-0.837 2.020v16c0 0.758 0.301 1.485 0.837 2.020s1.263 0.837 2.020 0.837h22.857c0.758 0 1.485-0.301 2.020-0.837s0.837-1.262 0.837-2.020v-16c0-0.758-0.301-1.484-0.837-2.020s-1.262-0.837-2.020-0.837zM10.286 7.429c0-1.061 0.421-2.078 1.172-2.828s1.768-1.172 2.828-1.172c1.061 0 2.078 0.421 2.829 1.172s1.172 1.768 1.172 2.828v2.857h-8v-2.857zM25.143 28.571h-21.714v-14.857h21.714v14.857zM16.571 21.143c0 0.452-0.134 0.894-0.385 1.27s-0.608 0.669-1.026 0.842c-0.418 0.173-0.877 0.218-1.321 0.13s-0.851-0.306-1.17-0.626c-0.32-0.32-0.537-0.727-0.626-1.17s-0.043-0.903 0.13-1.321 0.466-0.775 0.842-1.026c0.376-0.251 0.818-0.385 1.27-0.385 0.606 0 1.188 0.241 1.616 0.669s0.669 1.010 0.669 1.616z"></path>
</symbol>
<symbol id="icon-leaf" viewBox="0 0 32 32">
<path d="M31.489 1.873c-0.027-0.464-0.223-0.901-0.552-1.229s-0.766-0.525-1.229-0.552c-6.253-0.368-11.777 0.369-16.421 2.19-4.443 1.742-7.868 4.442-9.908 7.808-2.782 4.596-2.788 10.176-0.071 15.504l-2.752 2.752c-0.176 0.176-0.316 0.386-0.411 0.616s-0.144 0.477-0.144 0.726 0.049 0.496 0.144 0.726c0.095 0.23 0.235 0.439 0.411 0.616 0.356 0.356 0.839 0.556 1.342 0.556 0.249 0 0.496-0.049 0.726-0.144s0.44-0.235 0.616-0.411l2.752-2.752c2.643 1.348 5.349 2.029 7.966 2.029 2.658 0.008 5.267-0.718 7.538-2.1 3.366-2.040 6.066-5.466 7.808-9.908 1.816-4.647 2.553-10.173 2.185-16.426zM19.527 24.96c-3.172 1.922-6.894 2.067-10.693 0.461l13.348-13.348c0.176-0.176 0.316-0.385 0.411-0.616s0.145-0.477 0.145-0.726c0-0.249-0.049-0.496-0.145-0.726s-0.235-0.44-0.411-0.616c-0.176-0.176-0.386-0.316-0.616-0.411s-0.477-0.144-0.726-0.144c-0.249 0-0.496 0.049-0.726 0.144s-0.44 0.235-0.616 0.411l-13.339 13.358c-1.601-3.789-1.456-7.52 0.474-10.693 3.302-5.452 11.138-8.482 21.158-8.25 0.218 10.017-2.812 17.855-8.264 21.156z"></path>
</symbol>
<symbol id="icon-framer-logo" viewBox="0 0 22 32">
<path d="M0 0h21.404v10.597h-10.702l-10.702-10.597zM0 10.597h10.702l10.702 10.597h-21.404v-10.597zM0 21.195h10.702v10.597l-10.702-10.597z"></path>
</symbol>
<symbol id="icon-framer-text" viewBox="0 0 144 32">
<path d="M0 0h19.035v5.989h-11.83v8.323h11.83v5.857h-11.83v10.657h-7.205v-30.827zM22.948 9.6h6.805v4.448c0.355-1.529 1.083-2.702 2.179-3.523 1.125-0.852 2.373-1.277 3.736-1.277 0.712 0 1.306 0.060 1.779 0.176v6.254c-0.679-0.081-1.362-0.125-2.046-0.132-1.868 0-3.275 0.601-4.225 1.805-0.947 1.174-1.423 2.935-1.423 5.285v8.191h-6.802v-21.227h-0.003zM48.189 31.399c-2.075 0-3.884-0.485-5.426-1.454-1.512-0.969-2.715-2.343-3.468-3.964-0.8-1.701-1.203-3.627-1.203-5.768 0-2.114 0.418-4.023 1.247-5.725 0.778-1.644 2.012-3.034 3.558-4.008 1.57-0.969 3.364-1.454 5.382-1.454 1.511 0 2.862 0.324 4.047 0.97 1.185 0.647 2.075 1.529 2.668 2.642v-3.039h6.76v21.227h-6.76v-2.995c-0.594 1.057-1.512 1.922-2.758 2.598-1.245 0.654-2.637 0.987-4.047 0.97zM50.146 25.806c1.63 0 2.89-0.528 3.78-1.585s1.335-2.394 1.335-4.007c0-1.585-0.445-2.907-1.335-3.964s-2.15-1.585-3.78-1.585c-1.544 0-2.787 0.513-3.736 1.541-0.919 1.028-1.379 2.363-1.379 4.008s0.46 2.994 1.379 4.051c0.949 1.028 2.194 1.541 3.736 1.541zM66.512 9.6h6.805v3.083c0.476-1.088 1.245-1.969 2.312-2.642 1.099-0.673 2.373-1.013 3.825-1.013 3.38 0 5.62 1.306 6.716 3.92 0.603-1.185 1.547-2.165 2.714-2.818 1.247-0.743 2.68-1.124 4.135-1.102 5.071 0 7.605 2.876 7.605 8.631v13.168h-6.849v-11.935c0-1.437-0.267-2.494-0.8-3.17-0.534-0.674-1.335-1.013-2.402-1.013-1.156 0-2.045 0.397-2.668 1.189-0.623 0.764-0.934 2.098-0.934 4.007v10.922h-6.849v-11.979c0-1.438-0.266-2.481-0.8-3.126-0.502-0.674-1.29-1.013-2.355-1.013-1.187 0-2.092 0.397-2.715 1.189-0.623 0.764-0.934 2.098-0.934 4.007v10.922h-6.803v-21.227h-0.002zM126.187 19.113c0 0.909-0.060 1.893-0.181 2.95h-15.83c0.060 1.38 0.533 2.435 1.423 3.171 0.89 0.733 2.093 1.101 3.602 1.101 2.106 0 3.441-0.633 4.003-1.894h6.671c-0.327 2.085-1.484 3.772-3.47 5.064-1.956 1.262-4.358 1.894-7.204 1.894-3.676 0-6.567-0.985-8.673-2.951-2.075-1.968-3.113-4.711-3.113-8.235 0-2.29 0.474-4.272 1.423-5.946 0.916-1.671 2.33-3.024 4.047-3.875 1.75-0.909 3.781-1.365 6.096-1.365 2.192 0 4.133 0.426 5.823 1.278 1.719 0.852 3.040 2.041 3.958 3.567 0.95 1.529 1.424 3.275 1.424 5.241zM119.468 17.879c-0.029-1.409-0.429-2.482-1.201-3.215-0.769-0.733-1.883-1.101-3.335-1.101s-2.608 0.396-3.468 1.189c-0.829 0.764-1.26 1.805-1.291 3.126h9.295zM129.187 9.6h6.805v4.448c0.356-1.529 1.083-2.702 2.179-3.523 1.064-0.83 2.381-1.28 3.736-1.277 0.711 0 1.306 0.060 1.779 0.176v6.254c-0.679-0.081-1.362-0.125-2.046-0.132-1.868 0-3.275 0.601-4.225 1.805-0.95 1.174-1.423 2.935-1.423 5.285v8.191h-6.805v-21.227z"></path>
</symbol>
</defs>
</svg>
